# xmcd
#
# Track frame offsets:
#	150
#	2673
#	17116
#	31522
#	47321
#	61232
#	78178
#	95544
#	115550
#	127720
#	142414
#	156880
#	170470
#	184627
#	200750
#	217002
#	228599
#	244332
#	260362
#
# Disc length: 3921 seconds
#
# Revision: 1
# Processed by: cddbd v1.5.1PL0 Copyright (c) Steve Scherf et al.
# Submitted via: audiograbber 1.82.02
#
DISCID=f50f4f13
DTITLE=Bert Kaempfert Orchestra - Celebrating A Legend
DYEAR=2003
DGENRE=Big Band
TTITLE0=Intro- Strangers In The Night
TTITLE1=I Can't Help Remembering You
TTITLE2=Why Can't You And I Add Up To Love
TTITLE3=Chanson D'Amour
TTITLE4=Two O'Clock Jump
TTITLE5=Tuxedo Junction
TTITLE6=I Cover The Waterfront
TTITLE7=San Francisco
TTITLE8=Take The A-Train
TTITLE9=Pussy Footin'
TTITLE10=Mr Anthony's Boogie
TTITLE11=The Way We Were
TTITLE12=It Makes No Difference
TTITLE13=Bye Bye Blues
TTITLE14=Apple Honey
TTITLE15=LOVE
TTITLE16=Strangers In The Night
TTITLE17=Danke Schoen
TTITLE18=Medley and Finale
EXTD=Live performance 2003 at Buxton Opera House
EXTT0=
EXTT1=
EXTT2=
EXTT3=
EXTT4=
EXTT5=
EXTT6=
EXTT7=
EXTT8=
EXTT9=
EXTT10=
EXTT11=
EXTT12=
EXTT13=
EXTT14=
EXTT15=
EXTT16=
EXTT17=
EXTT18=
PLAYORDER=
